<svg xmlns="http://www.w3.org/2000/svg" width="236.2507pt" height="300pt" viewBox="0 0 236.25071 300"><defs><clipPath id="a"><path d="M0 595.276h425.197V0H0Z"/></clipPath><clipPath id="b"><path d="M0 595.276h425.197V0H0Z"/></clipPath><clipPath id="c"><path d="M0 595.276h425.197V0H0Z"/></clipPath><clipPath id="d"><path d="M0 595.276h425.197V0H0Z"/></clipPath><clipPath id="e"><path d="M0 595.276h425.197V0H0Z"/></clipPath><clipPath id="f"><path d="M0 595.276h425.197V0H0Z"/></clipPath></defs><g fill="#203062" clip-path="url(#a)" transform="translate(-444.376 -637.503) scale(2.64584)"><path d="M192.904 289.252c0-.17-.09-.326-.237-.411l-1.14-.66a21.24 21.24 0 0 0-1 4.076h2.377ZM200.268 288.841l-2.893-1.674a.47.47 0 0 0-.473 0l-2.893 1.674a.474.474 0 0 0-.237.411v3.005h6.733v-3.005a.476.476 0 0 0-.237-.41M207.868 288.841l-2.893-1.674a.47.47 0 0 0-.473 0l-2.893 1.674a.474.474 0 0 0-.237.411v3.005h6.704v-3.159a.475.475 0 0 0-.208-.257M193.575 288.283l2.893-1.674a.475.475 0 0 0 .237-.41v-3.348a.473.473 0 0 0-.237-.41l-1.291-.748a21.686 21.686 0 0 0-3.403 5.822l1.328.768a.47.47 0 0 0 .473 0M197.809 286.61l2.893 1.673a.47.47 0 0 0 .473 0l2.893-1.674a.475.475 0 0 0 .237-.41v-3.348c0-.17-.09-.326-.237-.41l-2.893-1.675a.475.475 0 0 0-.473 0l-2.893 1.674a.476.476 0 0 0-.237.411v3.347c0 .17.09.326.237.411M205.173 282.85v3.349c0 .169.09.326.237.41l2.666 1.543v-7.254l-2.666 1.542a.476.476 0 0 0-.237.41M197.375 281.882l2.893-1.674a.476.476 0 0 0 .237-.411v-2.829a22.388 22.388 0 0 0-4.869 4.182l1.266.732a.47.47 0 0 0 .473 0M201.373 279.798c0 .169.09.326.237.41l2.892 1.674a.47.47 0 0 0 .473 0l2.894-1.673a.475.475 0 0 0 .208-.257v-3.655a.475.475 0 0 0-.208-.257l-2.45-1.418a22.623 22.623 0 0 0-4.046 1.82v.008ZM208.076 273.901c-.593.122-1.177.268-1.752.435l1.752 1.014ZM232.241 289.252v3.005h2.377a21.24 21.24 0 0 0-.999-4.076l-1.141.66a.476.476 0 0 0-.237.41M231.137 288.841l-2.893-1.674a.47.47 0 0 0-.473 0l-2.893 1.674a.474.474 0 0 0-.237.411v3.005h6.733v-3.005c0-.17-.09-.326-.237-.41M223.536 288.841l-2.893-1.674a.47.47 0 0 0-.473 0l-2.893 1.674a.475.475 0 0 0-.208.257v3.16h6.704v-3.006c0-.17-.09-.326-.237-.41M228.44 282.85v3.349c0 .169.09.326.238.41l2.893 1.674a.47.47 0 0 0 .473 0l1.327-.768a21.725 21.725 0 0 0-3.402-5.822l-1.291.747a.474.474 0 0 0-.237.41M227.336 282.44l-2.893-1.674a.47.47 0 0 0-.473 0l-2.893 1.674a.474.474 0 0 0-.237.411v3.347c0 .17.09.326.237.411l2.893 1.674a.475.475 0 0 0 .473 0l2.893-1.674a.474.474 0 0 0 .237-.41v-3.348c0-.17-.09-.326-.237-.41M219.973 286.199v-3.348a.474.474 0 0 0-.237-.41l-2.666-1.543v7.254l2.666-1.542a.477.477 0 0 0 .237-.411M224.877 280.208l2.893 1.674a.47.47 0 0 0 .473 0l1.265-.732a22.36 22.36 0 0 0-4.868-4.182v2.829c0 .17.091.326.237.411M217.277 280.208l2.893 1.674a.47.47 0 0 0 .473 0l2.894-1.674a.475.475 0 0 0 .236-.411v-3.347l-.001-.007a22.553 22.553 0 0 0-4.045-1.821l-2.45 1.417a.475.475 0 0 0-.208.257v3.655a.475.475 0 0 0 .208.257M217.07 273.901v1.45l1.751-1.015a22.634 22.634 0 0 0-1.752-.435"/></g><path fill="#203062" d="M108.534 127.444h19.047v8.321h-19.047ZM108.534 116.646h19.047v8.322h-19.047ZM108.534 105.849h19.047v8.32h-19.047ZM108.534 95.054h19.047v8.32h-19.047Z"/><g clip-path="url(#b)" transform="translate(-444.376 -637.503) scale(2.64584)"><path fill="#203062" d="M208.974 272.79c2.399.516 4.799.516 7.199 0v3.145h-7.2Z"/></g><path fill="#203062" d="M165.346 137.922H56.065v9.419h57.991l4.001-4.011 4.003 4.01H180.05v-9.418z"/><path fill="#203062" d="m125.593 153.952-7.535 7.554-7.536-7.554 7.536-7.551z"/><g clip-path="url(#c)" transform="translate(-444.376 -637.503) scale(2.64584)"><path fill="#203062" d="M181.016 272.986a4.654 4.654 0 0 1-3.059-1.14 4.68 4.68 0 0 1-1.621-3.219 4.683 4.683 0 0 1 1.125-3.424 4.661 4.661 0 0 1 3.212-1.624 4.66 4.66 0 0 1 3.417 1.127 4.722 4.722 0 0 1 .496 6.642 4.666 4.666 0 0 1-3.57 1.638m.01-6.467-.133.005c-.468.035-.892.25-1.198.606a1.743 1.743 0 0 0-.419 1.277c.035.468.249.894.604 1.2.355.305.806.455 1.274.42.467-.035.892-.25 1.197-.606.306-.356.455-.809.42-1.276a1.748 1.748 0 0 0-.605-1.2 1.738 1.738 0 0 0-1.14-.426"/></g><path fill="#203062" d="m49.13 105.896-6.348 7.387-3.791.283-10.576-9.12-.285-3.802 6.347-7.387zM58.75 94.696l-8.101 9.432L35.996 91.49l8.101-9.43zM68.37 83.497l-8.102 9.432L45.616 80.29l8.101-9.432zM76.235 74.342l-6.347 7.387-14.653-12.64 6.348-7.386 3.791-.286 10.578 9.123zM77.814 98.33l-11.139 12.967-11.253-9.705 11.14-12.968z"/><g clip-path="url(#d)" transform="translate(-444.376 -637.503) scale(2.64584)"><path fill="#203062" d="M243.998 272.973a4.668 4.668 0 0 1-3.212-1.625 4.722 4.722 0 0 1 .496-6.642 4.658 4.658 0 0 1 3.417-1.127 4.665 4.665 0 0 1 3.212 1.624 4.688 4.688 0 0 1 1.125 3.424 4.681 4.681 0 0 1-1.621 3.218 4.656 4.656 0 0 1-3.417 1.128m-.793-6.03a1.75 1.75 0 0 0-.604 1.202c-.035.467.114.92.419 1.276a1.74 1.74 0 0 0 1.198.606c.467.035.919-.114 1.274-.42s.569-.732.604-1.2a1.748 1.748 0 0 0-.42-1.277 1.733 1.733 0 0 0-1.197-.605l-.133-.006c-.42 0-.82.149-1.141.425"/></g><path fill="#203062" d="m187.584 105.896 6.345 7.387 3.794.283 10.578-9.12.283-3.802-6.347-7.387zM177.964 94.696l8.102 9.432 14.652-12.639-8.101-9.43zM168.345 83.497l8.101 9.432L191.1 80.29l-8.101-9.432zM160.479 74.342l6.347 7.387 14.653-12.64-6.348-7.386-3.791-.286-10.578 9.123zM158.9 98.33l11.14 12.967 11.25-9.705-11.139-12.968z"/><g clip-path="url(#e)" transform="translate(-444.376 -637.503) scale(2.64584)"><path fill="#203062" d="m209.3 299.865 2.877 2.859v9.56c0 .32-.462.364-.522.05zM216.005 299.865l-2.877 2.859v9.56c0 .32.462.364.52.05zM200.58 308.514l7.949-7.965 3.21 16.853c-.858 0-1.68-.358-2.265-.987-2.56-2.747-5.17-5.158-8.894-7.9M184.913 307.42c-4.392-1.324-4.837-6.82-4.932-7.914l2.034.857a.72.72 0 0 0 .904-.862c-.377-1.577-.75-4.951.29-7.257.204-.454-.248-.919-.693-.7-2.001.985-6.026 2.834-8.4 6.357-.341.505.087 1.175.687 1.075l2.116-.016s-1.657 3.858.88 8.752a18.605 18.605 0 0 1 2.076 7.714c.034.741.074 1.574.045 2.42a1.511 1.511 0 0 0 1.379 1.566c.84.076 1.662.22 2.39.345a18.508 18.508 0 0 1 7.38 3.023c4.532 3.132 8.558 1.964 8.558 1.964l-.278 2.102a.693.693 0 0 0 .978.816c3.784-1.924 6.115-5.696 7.339-7.563.272-.415-.132-.923-.606-.776-2.413.747-5.707-.041-7.222-.613a.72.72 0 0 0-.967.792l.596 2.127c-1.072-.229-6.46-1.345-7.225-5.876-.547-3.237 2.626-6.743 4.688-8.637-1.18-.79-2.565-1.57-4.08-2.33-2.2 1.66-5.321 3.423-7.937 2.635M232.955 315.753c-.766 4.531-6.152 5.647-7.225 5.876l.596-2.128a.72.72 0 0 0-.966-.792c-1.515.572-4.81 1.361-7.222.614-.474-.147-.88.36-.606.776 1.224 1.866 3.554 5.639 7.338 7.562a.693.693 0 0 0 .979-.816l-.278-2.102s4.026 1.168 8.556-1.963a18.506 18.506 0 0 1 7.38-3.023c.73-.125 1.55-.268 2.392-.344a1.512 1.512 0 0 0 1.379-1.567c-.03-.845.01-1.679.044-2.42a18.606 18.606 0 0 1 2.077-7.714c2.537-4.894.88-8.751.88-8.751l2.116.015c.6.101 1.027-.569.687-1.074-2.375-3.524-6.4-5.372-8.401-6.358-.444-.219-.897.247-.692.7 1.038 2.306.667 5.679.29 7.256a.72.72 0 0 0 .903.863l2.034-.857c-.094 1.095-.54 6.591-4.932 7.914-2.616.789-5.737-.973-7.938-2.634-1.513.759-2.898 1.539-4.078 2.33 2.06 1.894 5.233 5.4 4.687 8.637"/><path fill="#203062" d="M234.355 297.414h-19.58l10.582 10.62c3.656-2.919 8.059-5.053 12.748-6.878zm.018 2.996c-.922.401-1.8.806-2.638 1.216l-2.096-2.102h3.846Zm-3.822 1.814c-.71.37-1.391.743-2.044 1.123l-3.81-3.823h3.163zm-10.698-2.7h3.065l4.479 4.495c-.64.401-1.255.81-1.842 1.227ZM224.617 308.514l-7.949-7.965-3.21 16.853c.858 0 1.68-.358 2.265-.987 2.56-2.747 5.17-5.158 8.894-7.9M224.276 250.506c.292-1.166-.089-2.495-1.04-3.475-1.122-1.154-2.689-1.485-4.263-.927-.192-1.326-1.198-5.159-6.406-5.159-5.227 0-6.221 3.862-6.408 5.174-1.588-.579-3.174-.252-4.306.913-.951.98-1.333 2.308-1.04 3.474-1.218.686-1.945 1.91-1.932 3.312.014 1.674 1.077 3.141 2.707 3.736l.312.114c.458 1.718 2.519 2.807 4.147 2.807.452 0 .869-.084 1.21-.26.637.737 1.946 1.11 3.188 1.11.804 0 1.578-.16 2.125-.474.537.302 1.291.451 2.077.451 1.259 0 2.595-.375 3.231-1.088.34.177.758.261 1.209.261 1.634 0 3.702-1.096 4.151-2.824l.263-.097c1.63-.595 2.693-2.062 2.707-3.736.013-1.404-.715-2.626-1.932-3.312m-21.794 6.028-.461-.169c-1.131-.413-1.867-1.417-1.877-2.558-.01-1.082.62-1.974 1.684-2.383l.18-.07a.456.456 0 0 0 .245-.628l-.085-.173c-.39-.794-.147-1.879.59-2.638.402-.414 1.526-1.288 3.27-.485 1.844.85 3.749 3.257 4.855 5.273v3.342c-1.367-.492-2.624-.678-3.737-.68h-.012a9.667 9.667 0 0 0-4.652 1.17m9.326 3.288c-.273.118-.727.235-1.363.235-1.085 0-1.945-.339-2.233-.672l-.417-.482a.455.455 0 0 0-.554-.107l-.565.293c-.086.045-.28.12-.629.12-.999 0-2.401-.657-2.841-1.63a8.517 8.517 0 0 1 3.934-.949c1.535.001 3.103.401 4.668 1.188zm.759-13.395c-.93 0-1.684.756-1.684 1.688v2.197c-.997-1.412-2.234-2.747-3.507-3.574l.003-.163c.004-.178.147-4.365 5.188-4.365 5.009 0 5.183 4.19 5.188 4.365l.003.135c-1.27.812-2.506 2.133-3.506 3.538v-2.133c0-.932-.755-1.688-1.685-1.688m6.52 12.781c-.348 0-.544-.074-.629-.119l-.556-.288a.455.455 0 0 0-.549.101l-.417.467c-.288.323-1.188.665-2.289.665-.616 0-1.056-.106-1.321-.217v-1.999c1.567-.788 3.137-1.188 4.674-1.188 1.801 0 3.18.558 3.928.95-.44.973-1.842 1.628-2.841 1.628m3.981-2.844-.434.16a9.67 9.67 0 0 0-4.634-1.16c-1.117 0-2.377.187-3.748.68v-3.422c1.111-2 2.989-4.354 4.809-5.193 1.745-.804 2.868.071 3.269.485.738.76.981 1.844.59 2.638l-.084.173a.456.456 0 0 0 .245.628l.179.07c1.065.41 1.694 1.301 1.685 2.383-.01 1.141-.747 2.145-1.877 2.558M187.094 301.156c4.688 1.825 9.09 3.96 12.748 6.877l10.582-10.619h-19.58Zm4.62-1.632h3.845l-2.095 2.102a65.518 65.518 0 0 0-2.638-1.216Zm5.625 0h3.163l-3.81 3.823a49.525 49.525 0 0 0-2.044-1.123zm2.305 5.722a37.997 37.997 0 0 0-1.842-1.227l4.479-4.495h3.065zM218.934 262.688v-.97h-1.356a3.43 3.43 0 0 0-2.426 1.005h.003-5.068a.458.458 0 0 0-.364.181l-2.337 2.774-6.701.512-1.142-1.144h-1.044v4.691c.198-.428.637-.95 1.274-.95h5.897c.364 0 .712.145.97.403l.002.002.393.394.396-.397 1.198-1.199a2.915 2.915 0 0 1-.851 2.046l-.743.744-.938-.94a.706.706 0 0 0-.502-.209h-5.456v1.285l.727.73 7.838.013.107.028c1.18.314 3.499.925 6.71.274v.007l9.335-.66.165-.16a3.91 3.91 0 0 0 1.18-2.659c.594-.66.947-1.507.996-2.385a3.9 3.9 0 0 0 1.063-2.654v-.762Zm-3.733 2.084h-.024c-.487 0-.947.23-1.241.618l-.246.327c-.2.266-.514.422-.846.422h-.887c-.315 0-.615-.14-.817-.384l-.422-.51c-.37-.01-1.065.081-1.546.496l1.043-1.134c.167-.224.443-.328.72-.328h5.313a1.357 1.357 0 0 1-1.047.493m9.093 5.307-6.558.463 1.589-1.679h5.57a2.61 2.61 0 0 1-.601 1.216m1.015-2.482h-5.295v-1.18h5.877a2.59 2.59 0 0 1-.582 1.18m1.064-2.462h-7.152l-.926-.928.253-.253h8.4a2.587 2.587 0 0 1-.575 1.181"/><path fill="#030405" d="M171.8 351.847c.137-.213.204-.493.204-.837 0-.447-.142-.786-.43-1.016-.287-.23-.735-.345-1.348-.345l-2.038.003s.366.104.432.472v4.092h1.173v-1.782l1.046 1.782h1.395l-1.25-1.833c.379-.098.65-.277.817-.536m-1.275-.128c-.123.06-.333.09-.631.09h-.102v-1.195h.102c.369 0 .62.06.75.18.096.084.142.226.142.426 0 .248-.087.414-.261.5M172.833 350.174v4.043h2.79v-1.022h-1.58v-.774h1.492v-.977h-1.491v-.797h1.58v-.997l-3.228.003s.396.113.437.52M179.473 349.975c-.298-.217-.776-.325-1.434-.325l-1.964.001s.474.132.492.626v3.94h1.173v-1.508h.35c.641 0 1.107-.102 1.396-.307.327-.234.491-.63.491-1.194 0-.575-.168-.986-.504-1.233m-.93 1.66c-.093.048-.263.071-.51.071H177.74v-1.073h.204c.268 0 .472.034.615.103.141.068.213.216.213.447 0 .225-.076.376-.229.452M184.762 351.598v-1.948l-1.673.003s.443.12.444.584l.005 1.802c0 .516-.063.86-.19 1.034-.107.146-.307.218-.6.218-.36 0-.597-.13-.708-.39-.063-.153-.094-.442-.094-.87v-2.381h-1.673s.42.12.442.556v1.865c0 .8.163 1.378.487 1.73.326.354.841.53 1.546.53.604 0 1.06-.086 1.37-.26.277-.16.462-.395.555-.71.064-.218.096-.566.096-1.047a8.09 8.09 0 0 1-.007-.351ZM188.375 351.758c.324-.094.55-.229.676-.404.102-.14.153-.327.153-.56 0-.478-.183-.8-.548-.966-.263-.12-.718-.179-1.365-.179l-1.892.003s.374.107.433.487v4.077h1.613c.773 0 1.313-.133 1.618-.396.234-.2.351-.5.351-.9 0-.375-.112-.665-.337-.869-.178-.162-.412-.26-.702-.293m-1.383-1.202h.332c.238 0 .402.017.491.052.153.06.23.19.23.39s-.075.336-.224.407c-.098.048-.25.071-.459.071l-.37-.007zm.963 2.658c-.119.051-.306.076-.56.076h-.403v-1.023h.434c.297 0 .512.048.644.142.105.076.16.193.16.351 0 .221-.093.372-.275.454M191.524 349.65l-1.682.002s.407.116.439.536v4.028h2.792v-1.073h-1.55ZM193.816 350.238v-.009 3.987h1.257v-4.567l-1.702.003s.445.121.445.586M196.545 350.358c-.348.448-.522.974-.522 1.579 0 .638.197 1.186.592 1.641.433.498.995.747 1.683.747.387 0 .79-.094 1.21-.281v-1.361c-.224.226-.437.384-.636.474a1.095 1.095 0 0 1-.44.089c-.4 0-.708-.155-.925-.467a1.436 1.436 0 0 1-.255-.842c0-.418.134-.748.402-.99.226-.205.485-.306.778-.306.19 0 .373.041.548.127.136.067.313.206.529.415v-1.361a2.853 2.853 0 0 0-1.211-.274c-.75 0-1.332.271-1.753.81M204.709 349.548c-.777 0-1.396.273-1.854.818-.388.459-.58.983-.58 1.572 0 .732.263 1.325.79 1.78a2.407 2.407 0 0 0 1.625.607c.672 0 1.246-.224 1.725-.674.478-.448.716-1.014.716-1.695 0-.604-.197-1.14-.593-1.604-.455-.536-1.064-.804-1.829-.804m.772 3.442c-.222.2-.478.3-.772.3-.395 0-.701-.148-.917-.447-.18-.246-.268-.547-.268-.9 0-.38.111-.7.335-.961.222-.262.506-.393.85-.393.404 0 .714.16.931.479.17.25.255.547.255.888 0 .439-.137.783-.414 1.034M208.037 350.168v4.048h1.211v-1.795h1.491v-.977h-1.49v-.798h1.58v-.997l-3.23.001s.394.113.438.518M217.877 349.65h-1.459l-1.429 2.07v-2.07h-1.681s.445.134.445.598v-.006 3.974h1.237v-2.043l1.478 2.043h1.544l-1.83-2.33zM220.499 349.548c-.778 0-1.397.273-1.855.818a2.37 2.37 0 0 0-.58 1.572c0 .732.263 1.325.79 1.78a2.411 2.411 0 0 0 1.624.607c.672 0 1.247-.224 1.725-.674.478-.448.717-1.014.717-1.695 0-.604-.197-1.14-.592-1.604-.454-.536-1.065-.804-1.83-.804m.773 3.442c-.221.2-.48.3-.772.3-.396 0-.701-.148-.918-.447-.18-.246-.268-.547-.268-.9 0-.38.112-.7.335-.961.223-.262.507-.393.85-.393.404 0 .714.16.93.479.17.25.256.547.256.888 0 .439-.137.783-.413 1.034M226.817 351.847c.136-.213.204-.493.204-.837 0-.447-.144-.786-.431-1.016-.287-.23-.736-.345-1.348-.345l-2.046.003s.415.118.44.548v4.016h1.173v-1.782l1.045 1.782h1.397l-1.25-1.833c.378-.098.65-.277.816-.536m-1.275-.128c-.125.06-.333.09-.631.09h-.102v-1.195h.102c.37 0 .62.06.752.18.094.084.14.226.14.426 0 .248-.087.414-.261.5M227.847 350.163v4.053h2.793v-1.022h-1.58v-.772h1.49v-.978h-1.49v-.797h1.58v-.997l-3.228.004s.388.11.435.509M232.15 349.654c.096.002.404.085.277.546l-1.38 4.016h1.237l.236-.823h1.766l.222.823h1.243l-1.58-4.567zm.643 2.85.46-1.507c.038-.115.087-.319.146-.613.064.273.12.477.166.613l.46 1.507ZM241.99 352.479l-2.083-2.83h-1.638s.409.117.44.539v4.028h1.171v-2.913l2.092 2.913h1.192v-4.566h-1.174ZM246.783 349.65h-2.024s.429.024.324.422l-1.423 4.144h1.236l.236-.824h1.766l.223.824h1.243l-1.572-4.539zm-1.377 2.854.459-1.507c.038-.115.088-.319.147-.613.064.273.119.477.166.613l.458 1.507zM249.977 352.647c-.026-.122-1.065-2.997-1.065-2.997l-1.64.005c.07.002.325.044.52.454l1.713 4.107h.95l1.906-4.566h-1.325ZM255.822 349.65l-.771 1.488-.76-1.489-1.687.005s.359.071.508.39l1.339 2.09v2.082h1.199v-2.082l1.594-2.485ZM199.87 340.486c.224.225.523.35.839.35h7.238v-7.607l-9.215-.002s.774.213.795 1.017v5.42c0 .31.122.6.343.822m2-5.248h3.606v3.685h-3.606ZM202.088 341.8h-2.557v4.366c0 .316.124.612.349.837.224.225.518.348.83.348h12.056v-1.912h-10.678ZM194.483 334.201v-.004l-.004 6.652h2.508v-2.982h1.536v-2.015h-1.536v-2.703l-3.3.004s.796.217.796 1.048M197.35 345.338h-10.675v-2.868h-2.566v3.544a1.29 1.29 0 0 0 1.293 1.286h11.948ZM233.319 332.387h-2.684v.758h-3.3s.756.21.794.991v.995h1.688a3.716 3.716 0 0 0-1.511 2.978c0 .99.383 1.92 1.082 2.62a3.665 3.665 0 0 0 2.613 1.084 3.704 3.704 0 0 0 3.695-3.704 3.72 3.72 0 0 0-1.51-2.978h1.72v-1.986h-2.587Zm-1.327 7.19a1.519 1.519 0 0 1 0-3.039c.838 0 1.516.681 1.516 1.52 0 .84-.678 1.52-1.516 1.52M183.923 334.03v1.102h1.687a3.717 3.717 0 0 0-1.51 2.978c0 .989.384 1.919 1.082 2.619a3.67 3.67 0 0 0 2.613 1.084 3.703 3.703 0 0 0 3.695-3.703c0-1.176-.57-2.285-1.51-2.978h1.721v-1.986h-2.588v-.715h-2.683v.715l-3.29.003s.684.189.783.88m2.712 5.18a1.618 1.618 0 0 1-.477-1.151c0-.435.17-.844.477-1.152a1.612 1.612 0 0 1 1.15-.476 1.621 1.621 0 0 1 1.625 1.628c0 .898-.73 1.629-1.626 1.629a1.61 1.61 0 0 1-1.149-.477M239.272 347.331v-8.647h1.057v8.647h2.252V333.13l-3.032.003s.658.182.777.84l.003 2.697h-1.057v-3.535h-3.184s.798.215.798 1.047l.001-.014v13.164ZM168.735 334.094v6.362c0 .32.12.619.34.839.212.212.496.33.8.33h5.513v-1.956h-4.107v-4.533l4.107.004v-1.924l-7.435.005s.676.192.782.873M176.735 333.978v13.354h2.384v-8.647h1.057v8.647h2.252V333.13H179.4s.643.19.773.832l.003 2.707h-1.057v-3.534l-2.208-.002h-.951s.65.19.775.844M210.251 334.197l.004-.027-.004 6.68h2.508v-7.702h-3.304s.796.218.796 1.05M213.901 340.835h5.21v1.428h-5.21v1.933h10.602v3.138h2.618v-3.783c0-.346-.134-.672-.377-.915a1.27 1.27 0 0 0-.904-.373h-4.166v-1.428h5.51l-.007-1.926h-13.276ZM213.922 334.197v.894h10.603v2.79h2.633v-3.42c0-.356-.134-.686-.378-.93a1.242 1.242 0 0 0-.884-.366H213.92v.002h-.794s.78.216.795 1.03M243.651 334.179v.989h10.602v2.948h2.618v-3.578c0-.35-.135-.677-.379-.922-.24-.24-.56-.372-.901-.372l-12.73-.003s.79.265.79.938"/></g><path fill="#030405" d="M235.314 259.855h-35.028v5.078h14.531v6.895h6.784v-6.895h13.713z"/><g clip-path="url(#f)" transform="translate(-444.376 -637.503) scale(2.64584)"><path fill="#030405" d="m243.626 342.259.004 3.78a1.282 1.282 0 0 0 1.29 1.289h11.949v-1.932h-10.677v-3.137Z"/></g></svg>